<svg width="250" height="33" viewBox="0 0 250 33" fill="none" xmlns="http://www.w3.org/2000/svg">
<path d="M7.46 29.54C7.148 29.54 6.908 29.42 6.74 29.18C6.596 28.964 6.524 28.688 6.524 28.352C6.524 23.336 6.428 19.1 6.236 15.644C5.66 15.548 5.252 15.5 5.012 15.5C4.028 15.5 3.32 15.584 2.888 15.752C2.888 17.096 2.996 19.124 3.212 21.836C3.404 24.716 3.5 26.756 3.5 27.956C3.5 28.196 3.428 28.424 3.284 28.64C3.14 28.832 2.96 28.928 2.744 28.928C2.432 28.928 2.144 28.376 1.88 27.272C1.496 25.64 1.184 22.22 0.944 17.012C0.776 13.484 0.692 9.692 0.692 5.636C0.668 4.892 0.656 3.836 0.656 2.468C0.656 2.036 0.86 1.82 1.268 1.82C1.508 1.82 1.748 1.88 1.988 2C2.252 2.12 2.444 2.252 2.564 2.396C2.468 3.164 2.42 4.064 2.42 5.096C2.42 6.104 2.468 7.328 2.564 8.768C2.636 10.424 2.672 11.672 2.672 12.512V13.16C2.648 13.352 2.636 13.58 2.636 13.844C2.636 14.084 2.66 14.396 2.708 14.78C2.852 14.78 3.092 14.768 3.428 14.744C3.764 14.72 4.1 14.684 4.436 14.636C5.228 14.564 5.816 14.528 6.2 14.528C6.2 12.44 6.176 10.508 6.128 8.732L6.056 2.72V1.748C6.368 1.748 6.644 1.808 6.884 1.928C7.124 2.024 7.304 2.156 7.424 2.324C7.64 2.588 7.772 3.044 7.82 3.692V4.52C7.82 6.584 7.94 10.532 8.18 16.364C8.396 21.644 8.504 25.604 8.504 28.244C8.504 28.58 8.396 28.88 8.18 29.144C7.988 29.408 7.748 29.54 7.46 29.54ZM16.0308 29.504C15.6228 29.504 15.2868 29.24 15.0228 28.712C15.2868 28.208 15.4188 26.168 15.4188 22.592C15.4188 21.752 15.3588 20.84 15.2388 19.856L15.1308 18.812C15.0588 18.164 15.0228 17.672 15.0228 17.336V16.4C14.7828 15.8 14.3388 14.684 13.6908 13.052C13.0668 11.42 12.5628 10.052 12.1788 8.948C11.7228 7.676 11.4948 6.812 11.4948 6.356V6.176L12.3228 5.564C12.7308 5.612 13.1628 6.14 13.6188 7.148C14.0028 8.036 14.4228 9.308 14.8788 10.964C15.3588 12.62 15.5988 13.496 15.5988 13.592C15.6948 13.328 15.8868 12.428 16.1748 10.892C16.4628 9.356 16.7868 8 17.1468 6.824C17.5548 5.648 17.9748 5.06 18.4068 5.06C18.6468 5.06 18.8508 5.132 19.0188 5.276C19.2108 5.42 19.3068 5.6 19.3068 5.816C19.3068 7.04 18.9708 8.768 18.2988 11C17.5788 13.424 17.2188 15.176 17.2188 16.256V27.092C17.2188 28.7 16.8228 29.504 16.0308 29.504ZM27.4861 29.684C26.8621 29.684 26.2861 29.48 25.7581 29.072C25.2301 28.688 24.7981 28.16 24.4621 27.488C23.7661 26.024 23.3341 24.428 23.1661 22.7C22.9501 21.068 22.8421 19.496 22.8421 17.984C22.8421 17.696 22.8541 17.456 22.8781 17.264V16.616C22.8781 16.496 22.8661 16.436 22.8421 16.436V15.788L22.8781 13.268C22.9021 12.5 22.9981 11.276 23.1661 9.596C23.2861 8.444 23.5621 7.328 23.9941 6.248C24.1621 5.768 24.3781 5.408 24.6421 5.168C24.9061 4.904 25.2061 4.772 25.5421 4.772C26.5021 4.772 27.3661 4.952 28.1341 5.312C28.9021 5.648 29.5501 6.128 30.0781 6.752C30.5581 7.352 30.9661 8.096 31.3021 8.984C31.6381 9.848 31.8781 10.772 32.0221 11.756C32.1661 12.764 32.2381 13.832 32.2381 14.96V15.248C32.2381 15.992 32.2501 16.664 32.2741 17.264L32.3101 19.316C32.3101 26.228 30.7021 29.684 27.4861 29.684ZM27.3421 28.172C27.7741 28.172 28.1701 28.004 28.5301 27.668C28.8901 27.308 29.1661 26.828 29.3581 26.228C29.8141 25.004 30.0901 23.684 30.1861 22.268C30.3061 21.044 30.3661 19.988 30.3661 19.1C30.3661 18.02 30.2821 16.604 30.1141 14.852C29.9701 13.004 29.8981 11.624 29.8981 10.712V10.064C29.8501 9.152 29.5381 8.36 28.9621 7.688C28.4101 7.016 27.7261 6.68 26.9101 6.68C26.0941 6.68 25.5541 7.148 25.2901 8.084C25.0501 8.828 24.9301 9.788 24.9301 10.964C24.9301 11.42 24.9421 11.804 24.9661 12.116V13.088L24.8941 14.744C24.8461 15.248 24.8221 15.8 24.8221 16.4C24.8221 17.696 24.8581 18.98 24.9301 20.252C25.0261 22.052 25.2661 23.804 25.6501 25.508C26.0341 27.284 26.5981 28.172 27.3421 28.172ZM34.3748 32.384C34.1108 32.384 33.9788 32.24 33.9788 31.952V31.664C34.0028 31.568 34.0148 31.46 34.0148 31.34C34.0148 31.244 34.1828 31.124 34.5188 30.98C35.6708 30.62 36.4508 30.224 36.8588 29.792C37.5308 29.048 37.8668 27.692 37.8668 25.724C37.8668 24.14 37.8068 21.068 37.6868 16.508C37.5428 12.5 37.4708 9.44 37.4708 7.328V7.184C37.3988 7.184 37.2788 7.172 37.1108 7.148C36.9668 7.124 36.7988 7.112 36.6068 7.112C36.1748 7.064 35.8268 7.004 35.5628 6.932C35.2028 6.836 34.9508 6.716 34.8068 6.572C34.7588 6.476 34.7348 6.38 34.7348 6.284C34.7348 6.068 34.8548 5.876 35.0948 5.708C35.3588 5.54 35.6228 5.456 35.8868 5.456C37.0868 5.456 38.4548 5.54 39.9908 5.708C41.5268 5.876 42.2948 6.068 42.2948 6.284C42.2948 6.524 42.1988 6.728 42.0068 6.896C41.8388 7.04 41.6108 7.112 41.3228 7.112H39.4868C39.4868 8.384 39.5468 10.916 39.6668 14.708C39.7868 17.516 39.8468 20.036 39.8468 22.268V26.12C39.8468 26.96 39.7868 27.668 39.6668 28.244C39.4988 29.132 39.1628 29.9 38.6588 30.548C38.1308 31.292 37.3388 31.82 36.2828 32.132C35.7548 32.3 35.1188 32.384 34.3748 32.384ZM47.0434 29.468C46.7314 29.468 46.4434 29.36 46.1794 29.144C45.9394 28.928 45.8074 28.664 45.7834 28.352V27.416V26.696C45.7594 26.48 45.7474 26.228 45.7474 25.94C45.7474 25.436 45.7114 24.668 45.6394 23.636L45.5674 21.332C45.5674 20.156 45.6034 18.404 45.6754 16.076C45.7714 13.988 45.8194 12.236 45.8194 10.82C45.8194 10.484 45.7834 9.98 45.7114 9.308C45.6394 8.612 45.6034 8.108 45.6034 7.796C45.6034 6.092 46.1074 5.24 47.1154 5.24C47.9074 5.24 48.8194 5.396 49.8514 5.708C50.9074 6.02 51.4354 6.392 51.4354 6.824C51.4354 7.064 51.3274 7.292 51.1114 7.508C50.9194 7.7 50.6794 7.856 50.3914 7.976C49.3834 7.616 48.4714 7.376 47.6554 7.256C47.6794 7.616 47.6914 8.132 47.6914 8.804C47.6914 9.764 47.6794 10.628 47.6554 11.396C47.5834 12.548 47.5474 13.412 47.5474 13.988L47.6554 14.564L48.2314 14.528C48.4234 14.504 48.6634 14.492 48.9514 14.492C50.1034 14.492 50.6794 14.828 50.6794 15.5C50.6794 15.764 50.5714 15.992 50.3554 16.184C50.1394 16.352 49.8634 16.436 49.5274 16.436C49.0954 16.436 48.7594 16.412 48.5194 16.364H47.6194C47.6674 16.988 47.6914 17.9 47.6914 19.1C47.6914 20.3 47.6794 21.38 47.6554 22.34C47.5834 23.804 47.5474 24.896 47.5474 25.616C47.5474 26.96 47.5714 27.632 47.6194 27.632L48.8074 27.596C49.2154 27.572 49.7074 27.56 50.2834 27.56C51.1954 27.56 51.6514 27.848 51.6514 28.424C51.6514 28.76 51.4954 29.012 51.1834 29.18C50.8954 29.372 50.5354 29.468 50.1034 29.468H47.0434ZM59.8299 29.684C59.2059 29.684 58.6299 29.48 58.1019 29.072C57.5739 28.688 57.1419 28.16 56.8059 27.488C56.1099 26.024 55.6779 24.428 55.5099 22.7C55.2939 21.068 55.1859 19.496 55.1859 17.984C55.1859 17.696 55.1979 17.456 55.2219 17.264V16.616C55.2219 16.496 55.2099 16.436 55.1859 16.436V15.788L55.2219 13.268C55.2459 12.5 55.3419 11.276 55.5099 9.596C55.6299 8.444 55.9059 7.328 56.3379 6.248C56.5059 5.768 56.7219 5.408 56.9859 5.168C57.2499 4.904 57.5499 4.772 57.8859 4.772C58.8459 4.772 59.7099 4.952 60.4779 5.312C61.2459 5.648 61.8939 6.128 62.4219 6.752C62.9019 7.352 63.3099 8.096 63.6459 8.984C63.9819 9.848 64.2219 10.772 64.3659 11.756C64.5099 12.764 64.5819 13.832 64.5819 14.96V15.248C64.5819 15.992 64.5939 16.664 64.6179 17.264L64.6539 19.316C64.6539 26.228 63.0459 29.684 59.8299 29.684ZM59.6859 28.172C60.1179 28.172 60.5139 28.004 60.8739 27.668C61.2339 27.308 61.5099 26.828 61.7019 26.228C62.1579 25.004 62.4339 23.684 62.5299 22.268C62.6499 21.044 62.7099 19.988 62.7099 19.1C62.7099 18.02 62.6259 16.604 62.4579 14.852C62.3139 13.004 62.2419 11.624 62.2419 10.712V10.064C62.1939 9.152 61.8819 8.36 61.3059 7.688C60.7539 7.016 60.0699 6.68 59.2539 6.68C58.4379 6.68 57.8979 7.148 57.6339 8.084C57.3939 8.828 57.2739 9.788 57.2739 10.964C57.2739 11.42 57.2859 11.804 57.3099 12.116V13.088L57.2379 14.744C57.1899 15.248 57.1659 15.8 57.1659 16.4C57.1659 17.696 57.2019 18.98 57.2739 20.252C57.3699 22.052 57.6099 23.804 57.9939 25.508C58.3779 27.284 58.9419 28.172 59.6859 28.172ZM78.4185 29.108C78.1305 29.108 77.9145 29.036 77.7705 28.892C77.6265 28.724 77.5185 28.448 77.4465 28.064L77.2305 27.38V27.308V27.2C77.2305 26.408 76.4025 23.708 74.7465 19.1C73.1145 14.492 71.8305 11.084 70.8945 8.876V26.984L71.0385 27.236C71.0625 27.284 71.1105 27.368 71.1825 27.488C71.2545 27.608 71.2905 27.728 71.2905 27.848C71.2905 28.16 71.1825 28.424 70.9665 28.64C70.7505 28.856 70.4865 28.964 70.1745 28.964C69.4065 28.964 69.0225 28.232 69.0225 26.768L68.9865 20.612C68.9625 18.764 68.9505 16.7 68.9505 14.42C68.9505 13.652 68.9865 12.536 69.0585 11.072C69.1305 9.56 69.1665 8.444 69.1665 7.724C69.1665 6.596 69.5985 5.708 70.4625 5.06V5.276C70.6065 5.228 70.7025 5.204 70.7505 5.204C71.3025 5.204 71.9985 6.164 72.8385 8.084C73.5105 9.62 74.1105 11.24 74.6385 12.944C75.1905 14.648 75.9105 17.072 76.7985 20.216L77.1585 21.512C77.7105 23.456 78.1305 24.848 78.4185 25.688C78.8985 20.528 79.1385 14.432 79.1385 7.4V6.932C79.1145 6.788 79.1025 6.632 79.1025 6.464C79.1025 5.744 79.3905 5.384 79.9665 5.384C80.3025 5.384 80.5545 5.516 80.7225 5.78C80.9145 6.044 81.0105 6.38 81.0105 6.788V9.488C80.9625 13.184 80.8185 17.192 80.5785 21.512C80.3385 25.832 80.0505 28.268 79.7145 28.82C79.0185 29.012 78.5865 29.108 78.4185 29.108ZM90.4971 29.288C89.8251 29.288 89.2131 29.168 88.6611 28.928C88.1091 28.664 87.6411 28.328 87.2571 27.92C86.9451 27.584 86.6571 27.092 86.3931 26.444C86.1291 25.796 85.9371 25.172 85.8171 24.572C85.6971 24.116 85.6011 23.456 85.5291 22.592C85.4571 21.728 85.4091 20.984 85.3851 20.36V18.272V16.832C85.3851 15.44 85.4091 14.3 85.4571 13.412C85.5051 12.332 85.6611 11.192 85.9251 9.992C86.1411 8.912 86.5131 7.964 87.0411 7.148C87.5451 6.332 88.2531 5.768 89.1651 5.456C89.5971 5.288 90.1011 5.204 90.6771 5.204C91.7091 5.204 92.2251 5.504 92.2251 6.104C92.2251 6.392 92.1051 6.632 91.8651 6.824C91.6491 6.992 91.3851 7.076 91.0731 7.076C90.9291 7.076 90.7971 7.064 90.6771 7.04C90.5811 7.016 90.4611 7.004 90.3171 7.004C89.9091 7.004 89.5491 7.22 89.2371 7.652C88.9251 8.084 88.6611 8.684 88.4451 9.452C88.0611 10.94 87.7971 12.56 87.6531 14.312C87.5571 15.944 87.5091 17.156 87.5091 17.948C87.5091 18.764 87.5451 19.88 87.6171 21.296C87.7131 22.616 87.9171 23.768 88.2291 24.752C88.3971 25.328 88.5891 25.796 88.8051 26.156C89.0451 26.492 89.3451 26.78 89.7051 27.02C90.1131 27.284 90.5331 27.416 90.9651 27.416C92.1171 27.416 92.6931 25.496 92.6931 21.656V20C92.5251 19.928 92.2491 19.892 91.8651 19.892H91.5411H91.1451C90.3051 19.892 89.8851 19.616 89.8851 19.064C89.8851 18.728 89.9931 18.476 90.2091 18.308C90.4491 18.116 90.7491 18.02 91.1091 18.02V18.056H91.6131C93.7731 18.056 94.8531 18.428 94.8531 19.172C94.8531 19.388 94.7931 19.82 94.6731 20.468C94.5291 21.044 94.4571 21.476 94.4571 21.764C94.4571 22.172 94.4931 22.808 94.5651 23.672L94.6371 25.58C94.6371 26.732 94.2291 27.644 93.4131 28.316C92.6211 28.964 91.6491 29.288 90.4971 29.288ZM113.261 29.828C113.117 29.828 112.973 29.804 112.829 29.756C112.709 29.732 112.577 29.72 112.433 29.72C111.785 26.048 111.137 22.976 110.489 20.504C109.841 18.032 109.025 15.704 108.041 13.52L107.285 14.924C107.069 15.332 106.949 15.692 106.925 16.004C106.853 16.724 106.817 17.252 106.817 17.588C106.817 18.308 106.853 19.412 106.925 20.9C106.997 22.364 107.033 23.48 107.033 24.248V27.2C107.033 28.472 106.625 29.108 105.809 29.108C105.113 29.108 104.765 28.436 104.765 27.092C104.765 26.036 104.837 24.416 104.981 22.232C105.149 20.216 105.233 18.608 105.233 17.408L105.269 14.312V10.568C105.269 9.248 105.185 7.868 105.017 6.428C104.849 4.94 104.765 3.812 104.765 3.044C104.765 2.732 104.861 2.468 105.053 2.252C105.245 2.036 105.485 1.928 105.773 1.928C106.661 1.928 107.105 2.9 107.105 4.844L106.961 12.224L107.645 10.46C108.437 8.444 109.253 6.452 110.093 4.484C110.573 3.404 111.005 2.552 111.389 1.928C111.797 1.28 112.121 0.955998 112.361 0.955998C112.625 0.955998 112.853 1.052 113.045 1.244C113.261 1.412 113.369 1.628 113.369 1.892C113.369 2.132 112.721 3.62 111.425 6.356C110.153 8.972 109.409 10.712 109.193 11.576V12.224C109.553 13.136 110.513 16.064 112.073 21.008C113.633 25.928 114.413 28.532 114.413 28.82C114.413 29.108 114.293 29.348 114.053 29.54C113.837 29.732 113.573 29.828 113.261 29.828ZM123.969 29.612C123.441 29.612 122.961 29.036 122.529 27.884C122.025 26.636 121.653 25.352 121.413 24.032L121.161 22.808C120.465 19.376 120.021 17.42 119.829 16.94H119.397C119.397 17.636 119.385 18.272 119.361 18.848V20.828C119.361 24.044 119.589 26.552 120.045 28.352L119.649 29.324H118.641L118.173 28.784L118.209 26.372C118.209 24.212 118.101 20.936 117.885 16.544C117.693 11.864 117.597 8.588 117.597 6.716C117.597 5.564 117.993 4.988 118.785 4.988C120.081 4.988 121.137 5.324 121.953 5.996C122.793 6.668 123.213 7.604 123.213 8.804V11.324C123.213 11.684 123.153 12.104 123.033 12.584C122.913 13.04 122.781 13.412 122.637 13.7L121.953 14.996L121.377 16.076L121.557 16.94L122.061 19.496C122.397 21.344 122.721 22.844 123.033 23.996C123.345 25.148 123.729 26.192 124.185 27.128L124.401 27.56C124.641 28.04 124.761 28.424 124.761 28.712C124.761 28.952 124.689 29.156 124.545 29.324C124.401 29.516 124.209 29.612 123.969 29.612ZM119.541 15.176C120.069 14.912 120.513 14.192 120.873 13.016C121.257 11.816 121.449 10.712 121.449 9.704C121.449 8.936 121.353 8.216 121.161 7.544C121.041 7.16 120.837 6.872 120.549 6.68C120.285 6.464 119.949 6.356 119.541 6.356L119.469 6.536L119.397 6.86L119.469 11.108C119.517 12.356 119.541 13.712 119.541 15.176ZM132.498 29.684C131.874 29.684 131.298 29.48 130.77 29.072C130.242 28.688 129.81 28.16 129.474 27.488C128.778 26.024 128.346 24.428 128.178 22.7C127.962 21.068 127.854 19.496 127.854 17.984C127.854 17.696 127.866 17.456 127.89 17.264V16.616C127.89 16.496 127.878 16.436 127.854 16.436V15.788L127.89 13.268C127.914 12.5 128.01 11.276 128.178 9.596C128.298 8.444 128.574 7.328 129.006 6.248C129.174 5.768 129.39 5.408 129.654 5.168C129.918 4.904 130.218 4.772 130.554 4.772C131.514 4.772 132.378 4.952 133.146 5.312C133.914 5.648 134.562 6.128 135.09 6.752C135.57 7.352 135.978 8.096 136.314 8.984C136.65 9.848 136.89 10.772 137.034 11.756C137.178 12.764 137.25 13.832 137.25 14.96V15.248C137.25 15.992 137.262 16.664 137.286 17.264L137.322 19.316C137.322 26.228 135.714 29.684 132.498 29.684ZM132.354 28.172C132.786 28.172 133.182 28.004 133.542 27.668C133.902 27.308 134.178 26.828 134.37 26.228C134.826 25.004 135.102 23.684 135.198 22.268C135.318 21.044 135.378 19.988 135.378 19.1C135.378 18.02 135.294 16.604 135.126 14.852C134.982 13.004 134.91 11.624 134.91 10.712V10.064C134.862 9.152 134.55 8.36 133.974 7.688C133.422 7.016 132.738 6.68 131.922 6.68C131.106 6.68 130.566 7.148 130.302 8.084C130.062 8.828 129.942 9.788 129.942 10.964C129.942 11.42 129.954 11.804 129.978 12.116V13.088L129.906 14.744C129.858 15.248 129.834 15.8 129.834 16.4C129.834 17.696 129.87 18.98 129.942 20.252C130.038 22.052 130.278 23.804 130.662 25.508C131.046 27.284 131.61 28.172 132.354 28.172ZM146.803 29.576C145.939 29.288 144.871 29.144 143.599 29.144C143.215 29.384 142.807 29.504 142.375 29.504C142.087 29.504 141.835 29.372 141.619 29.108C141.427 28.868 141.331 28.604 141.331 28.316C141.331 26.3 141.415 23.612 141.583 20.252C141.727 16.676 141.799 14 141.799 12.224V11.972C141.655 10.46 141.583 9.332 141.583 8.588C141.583 6.308 142.003 5.168 142.843 5.168C143.083 5.168 143.287 5.264 143.455 5.456C143.647 5.624 143.743 5.828 143.743 6.068C143.743 6.356 143.707 6.812 143.635 7.436C143.563 8.036 143.527 8.492 143.527 8.804C143.527 10.412 143.539 11.864 143.562 13.16C143.587 14.432 143.599 15.872 143.599 17.48C143.479 17.84 143.419 18.344 143.419 18.992V19.424L143.347 22.268C143.299 23.108 143.275 24.068 143.275 25.148C143.275 26.804 143.671 27.632 144.463 27.632C144.511 27.632 144.583 27.632 144.679 27.632C144.799 27.608 144.955 27.596 145.147 27.596C145.363 27.572 145.639 27.56 145.975 27.56C147.271 27.56 147.919 27.92 147.919 28.64C147.919 28.88 147.811 29.084 147.595 29.252C147.379 29.42 147.115 29.528 146.803 29.576ZM158.654 29.18C158.39 29.18 158.174 29.072 158.006 28.856C157.862 28.616 157.79 28.328 157.79 27.992L157.862 21.944C157.934 19.016 157.97 16.748 157.97 15.14C157.97 9.548 157.658 5.264 157.034 2.288C157.394 1.736 157.85 1.46 158.402 1.46C159.29 1.46 160.094 1.664 160.814 2.072C161.558 2.456 162.17 2.984 162.65 3.656C163.586 5.048 164.054 6.608 164.054 8.336C164.054 10.136 163.67 11.744 162.902 13.16C162.134 14.576 161.018 15.68 159.554 16.472L159.626 20.108L159.698 22.016C159.722 22.424 159.734 23.012 159.734 23.78C159.806 25.388 159.842 26.696 159.842 27.704C159.842 28.16 159.746 28.52 159.554 28.784C159.362 29.048 159.062 29.18 158.654 29.18ZM159.482 14.744C160.418 13.856 161.102 12.932 161.534 11.972C161.99 10.988 162.218 9.884 162.218 8.66V8.624C162.218 8.072 162.158 7.376 162.038 6.536C161.966 6.248 161.834 5.96 161.642 5.672C161.45 5.384 161.342 5.216 161.318 5.168C161.15 4.928 160.706 4.556 159.986 4.052L159.05 3.368C159.05 4.592 159.122 6.488 159.266 9.056L159.482 14.744ZM172.049 29.684C171.425 29.684 170.849 29.48 170.321 29.072C169.793 28.688 169.361 28.16 169.025 27.488C168.329 26.024 167.897 24.428 167.729 22.7C167.513 21.068 167.405 19.496 167.405 17.984C167.405 17.696 167.417 17.456 167.441 17.264V16.616C167.441 16.496 167.429 16.436 167.405 16.436V15.788L167.441 13.268C167.465 12.5 167.561 11.276 167.729 9.596C167.849 8.444 168.125 7.328 168.557 6.248C168.725 5.768 168.941 5.408 169.205 5.168C169.469 4.904 169.769 4.772 170.105 4.772C171.065 4.772 171.929 4.952 172.697 5.312C173.465 5.648 174.113 6.128 174.641 6.752C175.121 7.352 175.529 8.096 175.865 8.984C176.201 9.848 176.441 10.772 176.585 11.756C176.729 12.764 176.801 13.832 176.801 14.96V15.248C176.801 15.992 176.813 16.664 176.837 17.264L176.873 19.316C176.873 26.228 175.265 29.684 172.049 29.684ZM171.905 28.172C172.337 28.172 172.733 28.004 173.093 27.668C173.453 27.308 173.729 26.828 173.921 26.228C174.377 25.004 174.653 23.684 174.749 22.268C174.869 21.044 174.929 19.988 174.929 19.1C174.929 18.02 174.845 16.604 174.677 14.852C174.533 13.004 174.461 11.624 174.461 10.712V10.064C174.413 9.152 174.101 8.36 173.525 7.688C172.973 7.016 172.289 6.68 171.473 6.68C170.657 6.68 170.117 7.148 169.853 8.084C169.613 8.828 169.493 9.788 169.493 10.964C169.493 11.42 169.505 11.804 169.529 12.116V13.088L169.457 14.744C169.409 15.248 169.385 15.8 169.385 16.4C169.385 17.696 169.421 18.98 169.493 20.252C169.589 22.052 169.829 23.804 170.213 25.508C170.597 27.284 171.161 28.172 171.905 28.172ZM187.109 29.612C186.581 29.612 186.101 29.036 185.669 27.884C185.165 26.636 184.793 25.352 184.553 24.032L184.301 22.808C183.605 19.376 183.161 17.42 182.969 16.94H182.537C182.537 17.636 182.525 18.272 182.501 18.848V20.828C182.501 24.044 182.729 26.552 183.185 28.352L182.789 29.324H181.781L181.313 28.784L181.349 26.372C181.349 24.212 181.241 20.936 181.025 16.544C180.833 11.864 180.737 8.588 180.737 6.716C180.737 5.564 181.133 4.988 181.925 4.988C183.221 4.988 184.277 5.324 185.093 5.996C185.933 6.668 186.353 7.604 186.353 8.804V11.324C186.353 11.684 186.293 12.104 186.173 12.584C186.053 13.04 185.921 13.412 185.777 13.7L185.093 14.996L184.517 16.076L184.697 16.94L185.201 19.496C185.537 21.344 185.861 22.844 186.173 23.996C186.485 25.148 186.869 26.192 187.325 27.128L187.541 27.56C187.781 28.04 187.901 28.424 187.901 28.712C187.901 28.952 187.829 29.156 187.685 29.324C187.541 29.516 187.349 29.612 187.109 29.612ZM182.681 15.176C183.209 14.912 183.653 14.192 184.013 13.016C184.397 11.816 184.589 10.712 184.589 9.704C184.589 8.936 184.493 8.216 184.301 7.544C184.181 7.16 183.977 6.872 183.689 6.68C183.425 6.464 183.089 6.356 182.681 6.356L182.609 6.536L182.537 6.86L182.609 11.108C182.657 12.356 182.681 13.712 182.681 15.176ZM193.442 28.424L193.406 27.02C193.382 26.612 193.37 26.156 193.37 25.652L193.406 24.428C193.334 24.164 193.154 21.536 192.866 16.544C192.578 11.552 192.41 8.348 192.362 6.932C190.97 6.884 190.082 6.74 189.698 6.5C189.434 6.308 189.302 6.092 189.302 5.852C189.302 5.66 189.422 5.492 189.662 5.348C189.926 5.18 190.19 5.096 190.454 5.096C191.126 5.096 191.942 5.144 192.902 5.24C193.814 5.36 194.63 5.42 195.35 5.42H195.638H195.926C196.67 5.42 197.042 5.708 197.042 6.284C197.042 6.572 196.922 6.812 196.682 7.004C196.442 7.172 196.166 7.256 195.854 7.256C195.638 7.256 195.326 7.22 194.918 7.148L194.198 7.004L194.162 7.184L194.126 7.364C194.126 9.5 194.33 12.908 194.738 17.588C195.122 21.98 195.314 25.388 195.314 27.812C195.314 28.1 195.182 28.352 194.918 28.568C194.678 28.784 194.402 28.892 194.09 28.892L193.442 28.424ZM201.393 29.324C201.033 29.324 200.601 29.144 200.097 28.784C200.289 26.792 200.445 23.732 200.565 19.604C200.685 15.308 200.769 12.728 200.817 11.864V11C200.913 8.648 200.961 7.016 200.961 6.104C200.961 5.768 201.093 5.504 201.357 5.312C201.645 5.12 201.969 5.024 202.329 5.024C203.169 5.024 204.069 5.096 205.029 5.24C205.653 5.336 206.145 5.492 206.505 5.708C206.889 5.924 207.081 6.188 207.081 6.5C207.081 7.172 206.469 7.508 205.245 7.508C204.789 7.268 204.165 7.148 203.373 7.148H202.941V7.58C202.941 8.516 202.893 9.704 202.797 11.144C202.677 12.488 202.617 13.7 202.617 14.78V15.752H202.905H203.265C204.441 15.752 205.029 16.064 205.029 16.688C205.029 17 204.897 17.252 204.633 17.444C204.393 17.636 204.093 17.732 203.733 17.732C203.157 17.732 202.689 17.672 202.329 17.552V27.74C202.329 28.796 202.017 29.324 201.393 29.324ZM213.744 29.684C213.12 29.684 212.544 29.48 212.016 29.072C211.488 28.688 211.056 28.16 210.72 27.488C210.024 26.024 209.592 24.428 209.424 22.7C209.208 21.068 209.1 19.496 209.1 17.984C209.1 17.696 209.112 17.456 209.136 17.264V16.616C209.136 16.496 209.124 16.436 209.1 16.436V15.788L209.136 13.268C209.16 12.5 209.256 11.276 209.424 9.596C209.544 8.444 209.82 7.328 210.252 6.248C210.42 5.768 210.636 5.408 210.9 5.168C211.164 4.904 211.464 4.772 211.8 4.772C212.76 4.772 213.624 4.952 214.392 5.312C215.16 5.648 215.808 6.128 216.336 6.752C216.816 7.352 217.224 8.096 217.56 8.984C217.896 9.848 218.136 10.772 218.28 11.756C218.424 12.764 218.496 13.832 218.496 14.96V15.248C218.496 15.992 218.508 16.664 218.532 17.264L218.568 19.316C218.568 26.228 216.96 29.684 213.744 29.684ZM213.6 28.172C214.032 28.172 214.428 28.004 214.788 27.668C215.148 27.308 215.424 26.828 215.616 26.228C216.072 25.004 216.348 23.684 216.444 22.268C216.564 21.044 216.624 19.988 216.624 19.1C216.624 18.02 216.54 16.604 216.372 14.852C216.228 13.004 216.156 11.624 216.156 10.712V10.064C216.108 9.152 215.796 8.36 215.22 7.688C214.668 7.016 213.984 6.68 213.168 6.68C212.352 6.68 211.812 7.148 211.548 8.084C211.308 8.828 211.188 9.788 211.188 10.964C211.188 11.42 211.2 11.804 211.224 12.116V13.088L211.152 14.744C211.104 15.248 211.08 15.8 211.08 16.4C211.08 17.696 211.116 18.98 211.188 20.252C211.284 22.052 211.524 23.804 211.908 25.508C212.292 27.284 212.856 28.172 213.6 28.172ZM228.049 29.576C227.185 29.288 226.117 29.144 224.845 29.144C224.461 29.384 224.053 29.504 223.621 29.504C223.333 29.504 223.081 29.372 222.865 29.108C222.673 28.868 222.577 28.604 222.577 28.316C222.577 26.3 222.661 23.612 222.829 20.252C222.973 16.676 223.045 14 223.045 12.224V11.972C222.901 10.46 222.829 9.332 222.829 8.588C222.829 6.308 223.249 5.168 224.089 5.168C224.329 5.168 224.533 5.264 224.701 5.456C224.893 5.624 224.989 5.828 224.989 6.068C224.989 6.356 224.953 6.812 224.881 7.436C224.809 8.036 224.773 8.492 224.773 8.804C224.773 10.412 224.785 11.864 224.809 13.16C224.833 14.432 224.845 15.872 224.845 17.48C224.725 17.84 224.665 18.344 224.665 18.992V19.424L224.593 22.268C224.545 23.108 224.521 24.068 224.521 25.148C224.521 26.804 224.917 27.632 225.709 27.632C225.757 27.632 225.829 27.632 225.925 27.632C226.045 27.608 226.201 27.596 226.393 27.596C226.609 27.572 226.885 27.56 227.221 27.56C228.517 27.56 229.165 27.92 229.165 28.64C229.165 28.88 229.057 29.084 228.841 29.252C228.625 29.42 228.361 29.528 228.049 29.576ZM233.937 28.964C231.849 28.964 230.805 28.604 230.805 27.884C230.805 27.308 231.177 27.02 231.921 27.02H232.317L232.677 27.056C232.869 27.056 233.001 26.996 233.073 26.876C233.145 26.756 233.181 26.54 233.181 26.228C233.181 25.82 233.157 25.184 233.109 24.32C233.037 23.744 232.953 22.712 232.857 21.224C232.641 17.552 232.533 14.78 232.533 12.908C232.533 12.236 232.545 11.624 232.569 11.072L232.605 9.236C232.605 8.444 232.569 7.784 232.497 7.256C232.113 7.352 231.837 7.4 231.669 7.4C231.093 7.4 230.805 7.112 230.805 6.536C230.805 6.248 230.985 5.996 231.345 5.78C231.705 5.564 232.161 5.408 232.713 5.312C233.673 5.12 234.525 5.024 235.269 5.024C235.557 5.024 235.797 5.132 235.989 5.348C236.205 5.54 236.313 5.768 236.313 6.032C236.313 6.296 236.229 6.524 236.061 6.716C235.917 6.908 235.725 7.004 235.485 7.004C235.341 7.004 235.221 6.992 235.125 6.968H234.837C234.597 6.968 234.417 7.028 234.297 7.148C234.201 7.244 234.153 7.436 234.153 7.724C234.153 10.052 234.297 13.556 234.585 18.236C234.633 19.1 234.729 20.372 234.873 22.052C234.993 23.156 235.053 24.284 235.053 25.436V26.804C235.197 26.78 235.437 26.768 235.773 26.768C236.781 26.768 237.285 27.188 237.285 28.028V28.244L236.385 28.856C236.361 28.856 236.277 28.868 236.133 28.892C236.013 28.892 235.773 28.892 235.413 28.892C234.645 28.94 234.153 28.964 233.937 28.964ZM244.471 29.684C243.847 29.684 243.271 29.48 242.743 29.072C242.215 28.688 241.783 28.16 241.447 27.488C240.751 26.024 240.319 24.428 240.151 22.7C239.935 21.068 239.827 19.496 239.827 17.984C239.827 17.696 239.839 17.456 239.863 17.264V16.616C239.863 16.496 239.851 16.436 239.827 16.436V15.788L239.863 13.268C239.887 12.5 239.983 11.276 240.151 9.596C240.271 8.444 240.547 7.328 240.979 6.248C241.147 5.768 241.363 5.408 241.627 5.168C241.891 4.904 242.191 4.772 242.527 4.772C243.487 4.772 244.351 4.952 245.119 5.312C245.887 5.648 246.535 6.128 247.062 6.752C247.543 7.352 247.951 8.096 248.287 8.984C248.623 9.848 248.863 10.772 249.007 11.756C249.151 12.764 249.223 13.832 249.223 14.96V15.248C249.223 15.992 249.235 16.664 249.259 17.264L249.295 19.316C249.295 26.228 247.687 29.684 244.471 29.684ZM244.327 28.172C244.759 28.172 245.155 28.004 245.515 27.668C245.875 27.308 246.151 26.828 246.343 26.228C246.799 25.004 247.075 23.684 247.171 22.268C247.291 21.044 247.351 19.988 247.351 19.1C247.351 18.02 247.267 16.604 247.099 14.852C246.955 13.004 246.883 11.624 246.883 10.712V10.064C246.835 9.152 246.523 8.36 245.947 7.688C245.395 7.016 244.711 6.68 243.895 6.68C243.079 6.68 242.539 7.148 242.275 8.084C242.035 8.828 241.915 9.788 241.915 10.964C241.915 11.42 241.927 11.804 241.951 12.116V13.088L241.879 14.744C241.831 15.248 241.807 15.8 241.807 16.4C241.807 17.696 241.843 18.98 241.915 20.252C242.011 22.052 242.251 23.804 242.635 25.508C243.019 27.284 243.583 28.172 244.327 28.172Z" fill="black"/>
</svg>
